<svg width="158" height="121" viewBox="0 0 158 121" fill="none" xmlns="http://www.w3.org/2000/svg">
<path d="M9.65076 2.15072C7.50287 0.0028349 4.02047 0.0028349 1.87258 2.15072C-0.275302 4.2986 -0.275302 7.78101 1.87258 9.92889L9.65076 2.15072ZM82.3493 74.8493L9.65076 2.15072L1.87258 9.92889L74.5711 82.6274L82.3493 74.8493Z" fill="black"/>
<path d="M78 78.6985L150.699 6.00001" stroke="black" stroke-width="11" stroke-linecap="round"/>
<path d="M79 114.699L151.699 42" stroke="black" stroke-width="11" stroke-linecap="round"/>
<path d="M9.88904 38.1109C7.74115 35.963 4.25875 35.963 2.11086 38.1109C-0.0370211 40.2588 -0.0370211 43.7412 2.11086 45.8891L9.88904 38.1109ZM82.5876 110.809L9.88904 38.1109L2.11086 45.8891L74.8094 118.588L82.5876 110.809Z" fill="black"/>
</svg>
